<svg xmlns="http://www.w3.org/2000/svg" xmlns:xlink="http://www.w3.org/1999/xlink" width="86" height="2500">
<svg width="86" height="86" y="10"><path class="st0" fill="#E0CCE7" d="M37.5 75C16.8 75 0 58.2 0 37.5S16.8 0 37.5 0 75 16.8 75 37.5 58.2 75 37.5 75z"/><path class="st1" fill="#B69DBC" d="M18.3 25.9c1.7-1.9 4.1-3 6.8-3.1h.5c2.6 0 5 .9 6.7 2.5l.2.1c.6.6 1.2 1.1 1.6 1.5l-4-.6-.3 2.2.9.1 7.4 1.2v-.1h.1l-.2-8.5-2.2.1v1l.1 3.2c-.5-.5-1.1-1.1-1.8-1.7l-.1-.1c-2.3-2.1-5.5-3.2-8.8-3.1-3.3.2-6.3 1.5-8.3 3.8-4.6 5.1-3.8 13.1-.4 17.9 1 1.3 2 2.5 3.2 3.7l1.2-1.8c-1-1-1.9-2-2.7-3.1-3.4-4.6-3.3-11.4.1-15.2zm43.5 14.9L58.1 42l.1-.1c2-3.1 2.8-7.2 2.1-11.1-.4-2-1.1-3.8-2.2-5.4-2.1-3-4.9-4.7-8.4-4.8h-.2c-3.3 0-6.4 1.4-9.1 3.3v2.8c2.8-2.5 6.3-4 9.3-3.9 2.7.1 4.9 1.3 6.6 3.8.9 1.3 1.5 2.9 1.8 4.6.6 3.5-.1 7.1-2 9.8v-.2l-.5-4.1-2.2.3 1 8.4 8.1-2.5-.7-2.1zM42.6 52l-.5.3c-1.4.9-3 1.8-4.8 2.8-1-.5-3.8-2-5.2-2.8l-.6-.3c-1.8-1.1-3.7-2.3-5.6-3.7 0 0-.1 0-.1-.1l4 .1v-2.2l-8.4-.1 1.4 8.4L25 54l-.7-4.2.4.3c1.9 1.3 3.9 2.6 5.7 3.7l.5.3c1.3.8 5.3 3.2 6.6 3.2h.2l.5-.2V57c1.9-1 3.5-2 4.9-2.9l.5-.3c3.2-2 6.7-4.2 9.8-6.9-.5-.6-.9-1.1-1.4-1.7-2.8 2.7-6.3 4.9-9.4 6.8z"/></svg><svg width="86" height="86" y="106"><path class="st0" fill="#D4DCE6" d="M37.5 75C16.8 75 0 58.2 0 37.5S16.8 0 37.5 0 75 16.8 75 37.5 58.2 75 37.5 75z"/><path class="st1" fill="#89B1C4" d="M37.4 59.3h-1c-6.9-.4-13.1-5.6-14.6-12.2-1.3-5.7 1.2-10.9 3.7-15.2 2.2-3.9 4.9-7.8 8.4-12.5.8-1.1 1.7-2.2 2.6-3.3l.9-1 .9 1c1.4 1.7 2.9 3.7 4.7 6.2l.4.6c3.8 5.3 8.2 11.3 9.7 17.9 1 4.2.1 8.5-2.6 12-3 4.1-8 6.5-13.1 6.5zm0-40.8c-.6.7-1.1 1.5-1.7 2.2-3.5 4.6-6.1 8.5-8.3 12.3-2.3 4-4.6 8.7-3.5 13.6 1.3 5.7 6.6 10.1 12.6 10.5 4.7.3 9.4-1.9 12.2-5.7 2.3-3 3.1-6.7 2.2-10.2-1.5-6.1-5.7-12-9.4-17.1l-.4-.6c-1.3-1.9-2.5-3.5-3.7-5z"/><path class="st1" fill="#89B1C4" d="M36.8 53.3c-2 0-3.9-.7-5.6-2.1-2.8-2.3-4.7-6.7-2.6-11.3l2 .9c-1.6 3.5-.2 6.9 2 8.7 1.9 1.6 5 2.5 8.1.3l1.3 1.8c-1.6 1.2-3.4 1.7-5.2 1.7z"/></svg><svg width="86" height="86" y="202"><path class="st0" fill="#F3E4B2" d="M37.5 0C16.8 0 0 16.8 0 37.5S16.8 75 37.5 75 75 58.2 75 37.5 58.2 0 37.5 0z"/><path class="st1" fill="#ECBC4D" d="M39.6 31.8c3-6.2 2.4-13.6-1.6-19.2l-.4-.6H37c-6.9.5-13 4.6-16 10.9-2.9 6-2.4 13.1 1.2 18.7l-3.1 6.5 2 .9 3.1-6.5c6.7-.6 12.5-4.7 15.4-10.7zM23 23.9c2.5-5.3 7.7-8.9 13.5-9.6 3.2 4.9 3.6 11.2 1.1 16.5-2.3 4.9-6.9 8.4-12.2 9.4l8.3-17.3-2-.9-8.3 17.3c-2.6-4.8-2.8-10.5-.4-15.4zm18.8 24.3c-2.3-3.2-6.2-5-10.2-4.5l-.6.1-.3.6c-1.7 3.6-1.3 7.9 1.1 11.1 2.1 2.9 5.5 4.6 9 4.6h.6l2.2 3 1.8-1.3-2.2-3c1.2-3.5.8-7.5-1.4-10.6zm-8.3 6c-1.7-2.4-2.1-5.6-1.1-8.3 3-.1 5.8 1.3 7.6 3.7 1.5 2 2 4.6 1.5 7L37 50.3l-1.8 1.3 4.5 6.2c-2.4-.3-4.7-1.6-6.2-3.6zm18.2-28l.3-4.8-2.2-.2-.3 4.8c-4.1 2.2-6.9 6.4-7.2 11.1-.3 4.9 2 9.7 6.1 12.4l.5.3.6-.3c4.5-2.1 7.4-6.5 7.8-11.4.4-4.6-1.8-9.1-5.6-11.9zm3.4 11.9c-.3 3.9-2.5 7.4-6 9.3-3.1-2.3-4.9-6.1-4.6-10 .2-3.5 2-6.6 4.8-8.6L48.6 39l2.2.2.7-10.3c2.5 2.3 3.9 5.7 3.6 9.2z"/></svg><svg width="86" height="86" y="298"><path class="st0" fill="#F6E1E2" d="M37.5 75C16.8 75 0 58.2 0 37.5S16.8 0 37.5 0 75 16.8 75 37.5 58.2 75 37.5 75z"/><path class="st1" fill="#EDA3B0" d="M61.5 39l-.2-.6-.6-.2c-2.9-.9-5.9-.8-8.7 0 0-1.9.8-3.4 1.6-5 .9-1.7 1.8-3.5 1.8-5.9 0-5.2-5.5-9.2-10.1-10.4-5-1.3-11.8-.2-14.3 3.7-.4.7-.7 1.4-.8 2.1-.3 2.2.9 4.6 3.1 6.1.7.5 1.5.8 2.4 1 1.2.3 2.4.3 3.7.1 1.4-.2 4.7-1 5.4-3.5.4-1.2-.1-2.6-1.2-3.5-2-1.7-5.2-1.8-7.5-.2l1.2 1.8c1.3-.9 3.5-1.1 4.8.1.3.3.6.8.5 1.3-.3 1.1-2.2 1.8-3.7 2-1 .2-2 .1-2.9-.1-.6-.1-1.2-.4-1.7-.7-1.1-.7-2.4-2.2-2.1-3.9.1-.4.2-.8.5-1.3 1.8-2.9 7.7-3.8 11.9-2.7 1.3.3 4.3 1.4 4.5 3.8.1 2-.7 4.3-2.2 5.8-1.4 1.5-3.2 2.7-5 3.9-.5.4-1.1.7-1.6 1.1-2.4 1.7-4.8 3.4-6.6 5.8-2.3 3-3.2 9.8 1 14.3l1.6-1.5c-3.5-3.7-2.4-9.4-.8-11.5 1.6-2.1 3.8-3.7 6.1-5.3.5-.4 1-.7 1.6-1.1 1.9-1.2 3.8-2.5 5.4-4.2 1.8-1.9 2.8-4.5 2.7-7 1 1.1 1.8 2.4 1.8 4.1 0 1.8-.8 3.3-1.6 4.9-1 1.9-2.1 4-1.8 6.8-1.5.7-2.9 1.7-4.2 2.8-3.7 3.6-5.4 8.8-4.4 13.9-1.1.4-2.4.6-3.6.6h-2.6c-5.4 0-9.9-3.6-11.2-8.5-.4-1.9-.4-5.3-.4-5.3-.1-3.5-.3-8.2-2.8-12.4-1.1-1.8-1.3-3.5-.8-5 .3-.8.8-1.5 1.4-2.1-.1 1.4.2 2.9.9 4 1 1.6 2.7 2.6 4.3 3.3.8.4 1.5.7 2.3 1 2 .8 3.9 1.6 5 2.8l1.6-1.5c-1.4-1.5-3.6-2.4-5.8-3.3-1.8-.7-4.1-1.5-5.4-3.2-.4-.6-.7-1.3-.8-2-.1-.9.1-2 .7-2.7 1.4-1.7 4.4-2.4 5.6-2.5l-.2-2.2c-.2 0-2.7.3-5 1.6-.2.1-5.2 2-6.7 6.1-.8 2.2-.5 4.5.9 6.9 2 3.5 2.3 7.5 2.4 10.8v2.7c0 7.6 6.2 13.9 13.9 13.9h2.6c1.8 0 3.5-.3 5-1 1.3.4 2.6.5 4 .5 3.9 0 7.7-1.5 10.6-4.3 4.2-3.9 5.9-9.6 4.5-15zm-5.8 13.3c-2.9 2.8-7 4.1-10.9 3.5l8.6-8.2-1.5-1.6-8.6 8.2c-.4-4 1-8 4-10.8 3.3-3.1 7.9-4.3 12.3-3.3.8 4.5-.6 9.1-3.9 12.2z"/></svg><svg width="86" height="86" y="392"><path class="st0" fill="#E5E1B6" d="M37.5 0C16.8 0 0 16.8 0 37.5S16.8 75 37.5 75 75 58.2 75 37.5 58.2 0 37.5 0z"/><path class="st1" fill="#9DAE88" d="M38.3 46.4l-.3-.2c-1.2-.9-2.2-1.6-3.1-2.1l-1.1-.7-.5 1.3c-.2.6-.5 1.3-.7 1.9-.9 2.7-1.6 4.9-2 7-.5 2.5-.9 5.3.6 7.9 1.5 2.4 4.2 3.9 7.1 3.9.5 0 1-.1 1.5-.2l1 3.1 2.1-.7-1-3.1c2-1 3.6-2.7 4.3-4.8.7-2.2.5-4.4-.7-6.3-1.7-3-4.7-5.1-7.2-7zm5.8 12.5c-.5 1.5-1.6 2.7-2.9 3.4L38 52.8l-2.1.7 3.2 9.5c-2.3.3-4.8-.8-6-2.8-1-1.7-.9-3.7-.3-6.3.4-2 1-4.2 1.9-6.7.1-.2.1-.4.2-.5.6.4 1.1.8 1.8 1.3l.3.2c2.4 1.8 5.1 3.8 6.6 6.2.9 1.4 1 3 .5 4.5zm-7.2-40.7c-.1 0-.3.1-.4.1l-.8-2.2c1.2-1 1.7-2.7 1.2-4.5-.3-1-.9-1.9-1.8-2.5-.9-.6-2-.8-2.9-.5-1.9.6-2.9 2.9-2.3 5.1.6 1.9 2.1 3.1 3.7 3.2l.8 2.3c-2.7 1.4-4.9 3.9-5.9 6.9-1 3.1-.7 6.3 1 9 2.6 4.1 6.9 7.3 10.7 10l.4.3c1.8 1.3 3.2 2.3 4.6 3.1l1.1.7.5-1.3c.4-.9.7-1.9 1-2.8 1.3-4 2.3-7.3 2.9-10.4.7-3.6 1.3-7.7-.9-11.4-2.5-4.3-8-6.4-12.9-5.1zm-4.8-5.1c-.3-1.1 0-2.2.8-2.4h.3c.3 0 .6.2.8.3.4.3.8.8.9 1.3.3 1.1 0 2.2-.8 2.4-.8.2-1.7-.5-2-1.6zm16.6 21.1c-.6 3-1.5 6.3-2.8 10.1-.2.5-.3 1-.5 1.5-1-.7-2.1-1.4-3.3-2.3l-.4-.3c-3.6-2.6-7.8-5.6-10.1-9.4-1.3-2.2-1.6-4.6-.8-7.1.8-2.3 2.4-4.3 4.6-5.5l6 16.6 2.1-.7-6-16.7c.1 0 .1 0 .2-.1.8-.2 1.6-.3 2.4-.3 3.3 0 6.5 1.7 8.1 4.4 1.6 3 1.1 6.5.5 9.8z"/><path class="st1" fill="#9DAE88" d="M30.5 18.7c0-1.3-.5-2.7-1.4-3.8-.9-1.1-2.1-1.9-3.4-2.2-1.4-.3-2.7-.1-3.7.7-1 .8-1.6 2-1.6 3.4 0 1.3.5 2.7 1.4 3.8 1.2 1.5 2.9 2.3 4.5 2.3.9 0 1.8-.3 2.6-.9 1-.7 1.6-1.9 1.6-3.3zm-2.9 1.7c-1 .8-2.9.3-4-1.1-.6-.7-.9-1.6-.9-2.4 0-.7.3-1.3.7-1.7.3-.3.8-.4 1.2-.4.2 0 .4 0 .6.1.8.2 1.6.7 2.1 1.4.6.7.9 1.6.9 2.4.1.7-.2 1.3-.6 1.7zM41 15.9h.3c.8 0 1.6-.4 2.3-1 .6-.7 1-1.6 1.1-2.5.2-2.1-1.1-4-2.9-4.2-1.9-.2-3.6 1.4-3.8 3.5-.2 2.1 1.1 4 3 4.2zm-.8-4c.1-.8.6-1.6 1.2-1.6h.1c.6.1 1 .9 1 1.8 0 .5-.2.9-.5 1.2-.1.1-.4.4-.7.3-.7 0-1.2-.8-1.1-1.7zm10.4-.4c-1.6-.8-3.7.1-4.7 2-.9 1.9-.4 4.1 1.2 4.9.4.2.9.3 1.3.3 1.3 0 2.7-.9 3.4-2.3 1-1.9.4-4.1-1.2-4.9zm-.7 3.9c-.4.8-1.2 1.3-1.7 1-.5-.3-.7-1.2-.3-2 .3-.6.9-1.1 1.4-1.1.1 0 .2 0 .3.1.5.3.7 1.2.3 2z"/></svg>


<svg width="86" height="86" y="488">
<path xmlns="http://www.w3.org/2000/svg" class="st0" fill="#fdd4db" d="M37.5 0C16.8 0 0 16.8 0 37.5S16.8 75 37.5 75 75 58.2 75 37.5 58.2 0 37.5 0z"/>
    <svg y="8.5" x="7.5">
        <g y="100" xmlns="http://www.w3.org/2000/svg" fill="none" fill-rule="evenodd">
        <path d="M28.827 31.046l-8.476 4.894a3.54 3.54 0 00-1.789 3.1 3.539 3.539 0 001.793 3.098l3.11 1.791a3.542 3.542 0 003.575-.003 3.542 3.542 0 001.787-3.098v-9.782zm-3.577 15.37a5.564 5.564 0 01-2.783-.754l-3.11-1.79a5.52 5.52 0 01-2.795-4.83 5.52 5.52 0 012.79-4.834l9.877-5.704.516.894h1.082v11.43a5.522 5.522 0 01-2.786 4.83 5.563 5.563 0 01-2.79.757z" fill="#E6A5B0"/><path d="M30.863 30.883v9.498c0 1.355.701 2.568 1.874 3.245a3.71 3.71 0 003.746-.004l2.607-1.51a3.705 3.705 0 001.868-3.242 3.706 3.706 0 00-1.872-3.24l-8.223-4.747zm3.744 15.252a5.73 5.73 0 01-2.869-.777 5.684 5.684 0 01-2.875-4.976V29.264h1.032l.541-.937 9.65 5.57a5.686 5.686 0 012.872 4.972 5.686 5.686 0 01-2.866 4.974l-2.607 1.51c-.9.52-1.889.782-2.878.782z" fill="#E6A5B0"/><path d="M31.74 29.037l8.853 5.111a3.29 3.29 0 003.328 0 3.294 3.294 0 001.662-2.885l-.006-4.457a3.29 3.29 0 00-1.665-2.877 3.289 3.289 0 00-3.325.001l-8.847 5.107zm10.516 7.565c-.915 0-1.829-.24-2.663-.722l-10.255-5.92.516-.894-.54-.937 10.273-5.932a5.274 5.274 0 015.324 0 5.271 5.271 0 012.666 4.607l.006 4.456a5.274 5.274 0 01-2.66 4.62 5.317 5.317 0 01-2.667.722z" fill="#E6A5B0"/><path d="M34.375 14.149c-.652 0-1.305.172-1.899.516a3.755 3.755 0 00-1.895 3.285v9.406l8.15-4.706a3.756 3.756 0 001.897-3.288 3.756 3.756 0 00-1.902-3.286l-2.458-1.415a3.78 3.78 0 00-1.893-.512zm-4.197 15.749l-.516-.894h-1.08V17.95a5.738 5.738 0 012.893-5.017 5.736 5.736 0 015.791-.006l2.458 1.415a5.737 5.737 0 012.904 5.019 5.736 5.736 0 01-2.898 5.022l-9.552 5.515z" fill="#E6A5B0"/><path d="M24.881 14.21a3.66 3.66 0 00-1.834.5l-2.852 1.65a3.628 3.628 0 00-1.826 3.173 3.624 3.624 0 001.83 3.169l8.345 4.818v-9.641a3.622 3.622 0 00-1.832-3.172 3.651 3.651 0 00-1.83-.496zm4.09 15.866L19.2 24.434a5.607 5.607 0 01-2.831-4.9 5.605 5.605 0 012.826-4.904l2.85-1.65a5.6 5.6 0 015.665-.006 5.603 5.603 0 012.834 4.905v11.26h-1.032l-.54.937z" fill="#E6A5B0"/><path d="M17.05 23.729c-.553 0-1.109.146-1.614.438a3.191 3.191 0 00-1.611 2.797l.006 4.806a3.195 3.195 0 001.614 2.79 3.192 3.192 0 003.226 0l8.997-5.195-9.005-5.2a3.224 3.224 0 00-1.613-.436m.006 13.27a5.206 5.206 0 01-2.61-.706 5.174 5.174 0 01-2.615-4.521l-.006-4.805a5.171 5.171 0 012.61-4.531 5.172 5.172 0 015.228-.002l10.407 6.008-.517.894.541.937-10.424 6.019a5.22 5.22 0 01-2.614.708" fill="#E6A5B0"/><path d="M34.566 29.398a4.738 4.738 0 11-9.477 0 4.738 4.738 0 019.477 0" fill="#E6A5B0"/><path d="M29.827 25.66a3.742 3.742 0 00-3.738 3.738 3.742 3.742 0 003.738 3.738 3.742 3.742 0 003.738-3.738 3.742 3.742 0 00-3.738-3.738m0 9.476a5.744 5.744 0 01-5.738-5.738 5.744 5.744 0 015.738-5.738 5.744 5.744 0 015.738 5.738 5.744 5.744 0 01-5.738 5.738" fill="#E6A5B0"/></g>

    </svg>

</svg>
</svg>